<?xml version="1.0" encoding="UTF-8"?>
<svg width="465px" height="512px" viewBox="0 0 465 512" version="1.1" xmlns="http://www.w3.org/2000/svg" xmlns:xlink="http://www.w3.org/1999/xlink">
    <!-- Generator: Sketch 55.1 (78136) - https://sketchapp.com -->
    <title>icon</title>
    <desc>Created with Sketch.</desc>
    <g id="页面1" stroke="none" stroke-width="1" fill="none" fill-rule="evenodd">
        <g id="Custom-Preset" transform="translate(-24.000000, 0.000000)" fill="#000000" fill-rule="nonzero">
            <g id="icon" transform="translate(24.000000, 0.000000)">
                <g id="fa-solid:hand-holding-heart" transform="translate(240.000000, 338.000000) scale(-1, 1) translate(-240.000000, -338.000000) translate(15.000000, 164.000000)">
                    <g id="Icon" transform="translate(0.677841, 0.000000)">
                        <path d="M214.285699,170.365846 C219.7343,175.378598 228.607736,175.378598 234.134174,170.365846 L318.89884,93.0068813 C343.495382,70.5172348 342.094314,33.2602904 314.539959,12.5318813 C290.566114,-5.55467172 254.838858,-2.30315657 232.88878,17.7478535 L224.171018,25.6734217 L215.531093,17.8155934 C193.581014,-2.30315657 157.853758,-5.55467172 133.879913,12.5318813 C106.403396,33.2602904 104.92449,70.5172348 129.521032,93.0068813 L214.285699,170.365846 Z M440.01346,222.932008 C430.828675,215.683838 416.506638,216.158018 406.85483,222.932008 L334.933295,272.991793 C326.137696,279.156124 315.162657,282.475379 303.798431,282.475379 L211.717072,282.475379 C204.867402,282.475379 199.263127,277.598106 199.263127,271.636995 C199.263127,265.675884 204.867402,260.798611 211.717072,260.798611 L272.663568,260.798611 C285.039676,260.798611 296.559576,253.414962 298.583342,242.779798 C301.151968,229.231818 289.165045,217.445076 273.9868,217.445076 L149.447345,217.445076 C128.431312,217.445076 108.115814,223.744886 91.7700104,235.260669 L55.5757315,260.798611 L12.4539454,260.798611 C5.60427544,260.798611 0,265.675884 0,271.636995 L0,336.667298 C0,342.628409 5.60427544,347.505682 12.4539454,347.505682 L290.176929,347.505682 C301.463317,347.505682 312.438356,344.186427 321.311792,338.022096 L439.001576,256.056818 C450.832825,247.86029 451.766871,232.144634 440.01346,222.932008 Z" id="Icon-形状"></path>
                        <rect id="Icon-矩形" fill-opacity="0" x="0" y="0.67739899" width="448.342036" height="346.828283"></rect>
                    </g>
                </g>
                <g id="fa-solid:hand-holding" transform="translate(228.500000, 174.000000) scale(1, -1) translate(-228.500000, -174.000000) ">
                    <g id="Icon">
                        <path d="M448.282266,223.005469 C438.924879,215.732813 424.3337,216.208594 414.500514,223.005469 L341.227417,273.234375 C332.26653,279.419531 321.085246,282.75 309.507462,282.75 L215.695695,282.75 C208.717305,282.75 203.007713,277.85625 203.007713,271.875 C203.007713,265.89375 208.717305,261 215.695695,261 L277.787507,261 C290.396189,261 302.132573,253.591406 304.19437,242.920313 C306.811266,229.326563 294.599083,217.5 279.135605,217.5 L152.255785,217.5 C130.844815,217.5 110.147544,223.821094 93.4945678,235.375781 L56.6201199,261 L12.6879821,261 C5.70959192,261 0,265.89375 0,271.875 L0,337.125 C0,343.10625 5.70959192,348 12.6879821,348 L295.629982,348 C307.128466,348 318.30975,344.669531 327.349937,338.484375 L447.251367,256.242188 C459.30495,248.017969 460.256549,232.249219 448.282266,223.005469 Z" id="Icon-路径"></path>
                        <rect id="Icon-矩形" fill-opacity="0" x="0" y="0" width="456.767354" height="348"></rect>
                    </g>
                </g>
            </g>
        </g>
    </g>
</svg>